<?xml version="1.0" standalone="no"?><!DOCTYPE svg PUBLIC "-//W3C//DTD SVG 1.1//EN" "http://www.w3.org/Graphics/SVG/1.1/DTD/svg11.dtd"><svg t="1708846605456" class="icon" viewBox="0 0 1024 1024" version="1.1" xmlns="http://www.w3.org/2000/svg" p-id="14781" width="100" height="100" xmlns:xlink="http://www.w3.org/1999/xlink"><path d="M27.927273 324.514909a27.554909 27.554909 0 0 0 28.020363-27.554909V118.132364a61.812364 61.812364 0 0 1 62.184728-62.184728H296.96A27.554909 27.554909 0 0 0 324.514909 27.927273 27.554909 27.554909 0 0 0 296.96 0H118.132364A118.132364 118.132364 0 0 0 0 118.132364V296.96a27.554909 27.554909 0 0 0 27.927273 27.554909zM905.914182 0H727.04a27.554909 27.554909 0 0 0-27.554909 27.927273 27.554909 27.554909 0 0 0 27.554909 28.020363h178.827636a61.812364 61.812364 0 0 1 62.184728 62.184728V296.96a27.927273 27.927273 0 1 0 55.947636 0V118.132364A118.132364 118.132364 0 0 0 905.867636 0zM296.96 968.052364H118.132364a61.812364 61.812364 0 0 1-62.184728-62.184728V727.04a27.554909 27.554909 0 0 0-27.973818-27.554909 27.554909 27.554909 0 0 0-27.973818 27.554909v178.827636A118.132364 118.132364 0 0 0 118.132364 1024h182.365091a26.763636 26.763636 0 0 0 24.808727-28.765091 28.392727 28.392727 0 0 0-28.346182-27.182545z m697.483636-268.567273a27.554909 27.554909 0 0 0-27.927272 27.554909v178.827636a61.812364 61.812364 0 0 1-60.648728 62.184728H727.04a27.927273 27.927273 0 0 0 0 55.947636h178.827636A118.132364 118.132364 0 0 0 1024 905.867636V727.04a27.554909 27.554909 0 0 0-29.556364-27.554909z m-291.048727 149.271273a65.768727 65.768727 0 0 1-28.346182-7.493819l-141.405091-74.84509a57.111273 57.111273 0 0 0-44.078545 0l-140.241455 74.84509a61.812364 61.812364 0 0 1-26.763636 7.447273 42.914909 42.914909 0 0 1-34.676364-15.36 50.408727 50.408727 0 0 1-9.821091-43.706182l27.182546-157.509818a53.154909 53.154909 0 0 0-14.196364-39.377454l-113.803636-112.64a49.617455 49.617455 0 0 1-16.151273-51.2c6.981818-18.245818 23.831273-30.859636 43.287273-32.302546l157.556364-23.272727c14.801455-2.885818 27.601455-12.101818 35.048727-25.181091l70.516363-141.777455a47.243636 47.243636 0 0 1 87.831273 0l72.471273 144.523637c7.726545 12.567273 20.48 21.178182 35.048727 23.645091l157.509818 23.272727c19.502545 1.396364 36.398545 13.963636 43.333819 32.256 5.12 18.757818-1.210182 38.772364-16.151273 51.2l-114.967273 109.474909a52.363636 52.363636 0 0 0-12.613818 41.378909l26.763636 157.509818c3.723636 15.36 0.093091 31.511273-9.821091 43.752728a42.123636 42.123636 0 0 1-33.512727 15.36zM233.192727 452.142545l100.072728 99.23491c23.04 24.203636 34.257455 57.344 30.72 90.577454l-24.064 137.867636 123.671272-65.396363c30.533818-13.963636 65.629091-13.963636 96.116364 0l125.207273 65.768727-23.598546-137.029818a113.803636 113.803636 0 0 1 29.137455-91.787636l100.445091-97.28-137.448728-20.852364a112.64 112.64 0 0 1-78.801454-53.573818L512 250.88 448.977455 376.087273a112.64 112.64 0 0 1-78.75491 55.575272l-137.076363 20.48z" fill="#c5b088" p-id="14782"></path></svg>